<svg viewBox="-30 240 2280.000000000001 1230.0000000000005" fill="none" xmlns="http://www.w3.org/2000/svg" xmlns:xlink="http://www.w3.org/1999/xlink" xmlns:blush="http://design.blush" overflow="visible" width="2280.000000000001px" height="1230.0000000000005px"><g id="Master/Backgrounds/User Interface" blush:has-customizable-colors="true" blush:viewBox="0 -6 2339.9999999999995 1452" blush:i="0"><g id="Big Plants" blush:component="Big Plants" blush:defaultValue="5" blush:width="1064" blush:height="1360" transform="matrix(-1 0 0 1 1064 49) scale(1 1)" blush:i="0.0" blush:value="2" blush:viewBox="-90.48081841432213 278.79999999999995 1156.5217391304345 1081.1999999999998"><g id="Big Plants/2" blush:viewBox="-90.48081841432213 278.79999999999995 1156.5217391304345 1081.1999999999998" blush:i="0.0.0"><g id="leafs" blush:i="0.0.0.0"><path id="Fill 4 (Stroke)" fill-rule="evenodd" clip-rule="evenodd" d="M514.671 378.608C522.067 395.79 522.658 418.491 511.316 447.554C493.383 493.509 458.263 524.573 426.021 552.555C425.464 553.039 424.908 553.521 424.352 554.003C408.984 567.337 394.213 580.152 382.94 593.473C371.204 607.342 362.803 622.273 361.488 639.635C360.624 651.065 363.264 664.161 367.184 678.1C369.648 686.863 372.738 696.342 375.957 706.214C377.847 712.011 379.782 717.943 381.659 723.947C391.944 756.825 401.076 793.446 396.202 831.356C393.065 855.754 385.798 873.153 376.82 886.828C367.784 900.592 356.901 910.779 346.032 920.792C345.688 921.108 345.345 921.424 345.001 921.74C334.61 931.307 324.096 940.986 316.437 953.336C308.382 966.323 303.596 982.02 304.412 1003.46C305.734 1038.14 326.278 1060.96 348.329 1083.82C349.665 1085.21 351.009 1086.6 352.357 1087.99C373.506 1109.83 395.754 1132.81 408.205 1167.7C424.597 1213.64 415.962 1257.72 402.969 1290.63C396.482 1307.07 388.951 1320.6 383.047 1330.02C380.097 1334.72 377.56 1338.39 375.772 1340.86C375.322 1341.48 374.919 1342.03 374.57 1342.5H-6.3266C-6.89484 1341.76 -7.60492 1340.83 -8.43976 1339.7C-10.8225 1336.5 -14.2197 1331.76 -18.2354 1325.69C-26.2708 1313.54 -36.7601 1296.09 -46.5526 1274.89C-66.1801 1232.4 -82.7698 1175.41 -71.814 1116.13C-61.68 1061.31 -32.6273 1028.42 -3.56616 1002.65C3.17902 996.67 9.89963 991.094 16.4218 985.683C16.9551 985.24 17.4871 984.799 18.0177 984.359C25.0034 978.56 31.7621 972.913 37.8728 967.26C50.0276 956.015 60.2173 944.221 64.8234 930.054C76.529 894.045 69.8649 857.777 62.2617 821.456C61.7968 819.235 61.3282 817.013 60.8592 814.79C53.5763 780.259 46.2169 745.367 51.5039 708.232C60.3277 646.262 95.2898 612.474 133.716 587.498C146.644 579.095 159.724 571.831 172.415 564.783C178.822 561.225 185.13 557.721 191.269 554.155C209.233 543.718 225.628 532.79 236.493 518.882C245.846 506.909 252.942 493.088 259.554 478.613C261.994 473.271 264.348 467.892 266.723 462.463C270.883 452.954 275.109 443.295 279.981 433.425C295.075 402.847 315.582 372.026 355.234 347.247C386.091 327.965 436.922 324.676 474.161 340.817C492.616 348.817 507.255 361.379 514.671 378.608ZM-8.99988 1348C-13.2614 1351.48 -13.2629 1351.48 -13.2647 1351.47L-13.27 1351.47L-13.2869 1351.45L-13.3451 1351.37C-13.3947 1351.31 -13.4656 1351.22 -13.5573 1351.11C-13.6589 1350.98 -13.7861 1350.82 -13.9376 1350.63C-14.0591 1350.48 -14.1962 1350.3 -14.3485 1350.11C-15.0328 1349.23 -16.0226 1347.94 -17.2679 1346.27C-19.7582 1342.92 -23.2723 1338.02 -27.4097 1331.76C-35.6804 1319.26 -46.4639 1301.31 -56.5386 1279.5C-76.6453 1235.98 -94.1668 1176.55 -82.6307 1114.13C-71.868 1055.91 -40.8289 1020.99 -10.8644 994.422C-3.97748 988.315 2.87714 982.627 9.37769 977.234C9.91827 976.786 10.4564 976.339 10.9919 975.895C18.0002 970.077 24.5399 964.609 30.4026 959.185C42.1947 948.276 50.6526 938.063 54.3623 926.653C65.0449 893.791 59.1514 860.284 51.4951 823.71C51.0082 821.384 50.5144 819.047 50.018 816.697C42.7932 782.499 35.0426 745.812 40.6137 706.681C50.0526 640.392 87.8225 604.209 127.721 578.275C140.951 569.676 154.655 562.062 167.544 554.901C173.856 551.394 179.973 547.996 185.743 544.644C203.629 534.252 218.372 524.211 227.825 512.11C236.362 501.181 243.029 488.313 249.548 474.043C251.836 469.035 254.126 463.803 256.476 458.435C260.719 448.743 265.155 438.609 270.117 428.556C285.753 396.881 307.436 364.146 349.405 337.918C383.574 316.567 438.249 313.262 478.536 330.725C498.845 339.528 515.975 353.817 524.775 374.259C533.595 394.748 533.667 420.538 521.563 451.553C502.513 500.371 465.284 533.045 433.231 560.863C432.788 561.248 432.346 561.631 431.905 562.014C416.247 575.601 402.049 587.92 391.337 600.579C380.38 613.528 373.528 626.318 372.457 640.466C371.746 649.863 373.912 661.393 377.773 675.122C380.187 683.706 383.144 692.773 386.302 702.453C388.207 708.291 390.184 714.351 392.158 720.663C402.521 753.794 412.307 792.349 407.112 832.759C403.77 858.754 395.941 877.748 386.015 892.865C376.148 907.894 364.321 918.899 353.484 928.882L352.921 929.401C342.169 939.304 332.639 948.082 325.785 959.134C318.953 970.149 314.667 983.659 315.404 1003.04C316.549 1033.08 334.032 1053.15 356.247 1076.19C357.643 1077.64 359.057 1079.1 360.483 1080.57C381.491 1102.24 405.287 1126.8 418.565 1164.01C436.171 1213.34 426.757 1260.33 413.2 1294.67C406.412 1311.87 398.542 1326.01 392.366 1335.86C389.275 1340.79 386.602 1344.65 384.689 1347.3C383.732 1348.63 382.965 1349.65 382.43 1350.35C382.163 1350.69 381.953 1350.96 381.807 1351.15L381.707 1351.28L381.637 1351.36L381.588 1351.42L381.573 1351.44L381.568 1351.45C381.567 1351.45 381.565 1351.45 377.285 1348L381.565 1351.45L379.914 1353.5H-11.6108L-13.2614 1351.48L-8.99988 1348Z" fill="white" blush:i="0.0.0.0.0"/><path id="Fill 1" fill-rule="evenodd" clip-rule="evenodd" d="M815.714 743.606C892.958 728.493 1035.69 740.247 1057.52 763.757C1081.98 790.092 1020.62 935.468 991.183 947.246C947.021 947.246 873.421 938.413 885.196 961.966C896.972 985.518 935.246 1014.96 935.246 1029.68C935.246 1044.4 908.749 1138.61 876.364 1144.49C843.981 1150.38 764.491 1123.89 761.546 1144.49C758.603 1165.1 802.764 1191.6 805.708 1215.15C808.651 1238.71 764.491 1303.47 576.071 1359.41H414.151C414.151 1359.41 384.71 1156.27 455.366 1070.9C511.305 1091.5 534.858 1094.45 534.858 1094.45C534.858 1094.45 528.968 979.629 549.576 929.581C570.185 879.531 598.007 836.164 634.358 835.963C661.596 835.814 719.977 888.477 731.752 867.868C743.528 847.26 717.436 762.834 815.714 743.606" fill="white" blush:i="0.0.0.0.1"/><path id="Fill 5" fill-rule="evenodd" clip-rule="evenodd" d="M879.989 282.14C913.627 285.985 945.489 538.882 832.439 568.257C790.603 579.127 721.719 599.731 759.189 641.366C778.275 662.57 854.937 686.357 874.131 729.009C888.752 761.494 851.466 860.069 795.41 885.729C731.227 915.105 670.554 902.328 665.172 941.785C659.792 981.242 753.12 1005.87 758.885 1059.69C762.941 1097.52 699.968 1236.17 493.327 1353.03C371.366 1353.03 269.161 1351.23 269.161 1351.23C269.161 1351.23 170.799 1195.53 145.691 1012.59C120.58 829.655 159.321 765.646 227.554 757.052C263.919 752.471 334.07 804.991 369.241 794.716C398.558 786.15 360.981 687.52 360.981 617.572C360.981 547.626 379.242 484.937 408.699 470.087C432.421 458.13 502.927 510.669 526.243 521.429C549.561 532.191 595.375 543.337 604.147 519.537C614.924 490.286 576.273 413.813 605.107 370.564C641.155 316.488 803.156 273.359 879.989 282.14" fill="#D3E2F2" blush:i="0.0.0.0.2"/><path id="Stroke 10" d="M830.612 357.098C832.006 358.438 832.049 360.654 830.709 362.047L829.465 363.357C828.843 364.017 828.153 364.753 827.396 365.565L825.795 367.29C821.942 371.457 817.497 376.361 812.507 381.985L811.824 382.756C797.075 399.406 780.671 418.807 763.018 440.79L761.89 442.197C710.212 506.678 658.531 579.762 610.297 660.009C549.863 760.553 499.226 865.224 461.601 972.674C417.268 1099.28 392.36 1225.98 390.08 1351.45C390.045 1353.38 388.45 1354.92 386.517 1354.88C384.584 1354.85 383.046 1353.25 383.081 1351.32C385.376 1225.07 410.426 1097.64 454.994 970.36C492.787 862.432 543.63 757.336 604.298 656.402C652.165 576.766 703.411 504.164 754.699 439.98L756.427 437.819C773.828 416.108 790.039 396.871 804.683 380.266L806.584 378.115C810.963 373.17 814.938 368.762 818.478 364.902L820.655 362.538C821.509 361.614 822.298 360.766 823.02 359.995L825.664 357.195C827.004 355.801 829.219 355.758 830.612 357.098Z" fill="white" blush:i="0.0.0.0.3"/></g></g></g><g id="Object" blush:component="Object" blush:defaultValue="Cloud 1" blush:width="645" blush:height="650" transform="translate(1684.59 52.4185) scale(1 1)" blush:i="0.1" blush:value="Cloud 2" blush:viewBox="94.92943548387098 240.5 455.141129032258 169.00000000000014"><g id="Object/Cloud 2" blush:viewBox="94.92943548387098 240.5 455.141129032258 169.00000000000014" blush:i="0.1.0"><path id="Fill 4" fill-rule="evenodd" clip-rule="evenodd" d="M112.296 382.126C112.296 382.126 143.701 359.536 173.363 297.936C203.028 236.332 236.867 240.143 248.348 243.695C259.825 247.247 277.03 288.085 291.541 324.88C306.052 361.677 324.366 347.119 334.915 314.624C345.461 282.126 368.638 302.862 371.824 315.685C375.01 328.507 380.515 352.161 402.336 344.61C424.155 337.054 431.648 342.331 433.917 354.131C436.183 365.932 449.442 372.5 496.913 376.089C544.387 379.68 564.711 399.285 531.303 405.225C497.898 411.169 4.8072 408.307 112.296 382.126" fill="white" blush:i="0.1.0.0"/><path id="Fill 4 Copy" fill-rule="evenodd" clip-rule="evenodd" d="M248.791 242.262C239.576 239.411 228.674 239.631 217.042 245.021C200.757 252.568 185.472 269.329 172.01 297.285L171.088 299.188C169.853 301.714 168.604 304.2 167.34 306.644C155.065 330.383 141.923 349.414 128.792 364.176C124.205 369.332 119.952 373.584 116.14 376.987C114.812 378.173 113.635 379.168 112.623 379.977L112.418 380.141C112.152 380.351 111.916 380.534 111.711 380.69L111.643 380.741L111.365 380.81C104.915 382.407 100.54 383.952 98.1126 385.501C95.0723 387.44 94.5756 390.035 97.1385 392.057C100.514 394.72 110.242 396.94 126.212 398.941L127.538 399.105C157.082 402.707 206.555 405.447 268.92 407.222L275.473 407.403C382.999 410.296 514.076 409.814 531.565 406.702C539.945 405.212 545.471 402.802 547.898 399.572C550.462 396.16 549.425 392.21 545.435 388.656C537.723 381.785 519.567 376.298 497.025 374.593L495.71 374.492C452.62 371.144 437.611 365.422 435.388 353.849L435.305 353.427C432.47 339.631 422.546 336.023 401.844 343.192L401.458 343.323C388.789 347.53 381.38 341.172 376.407 326.552C375.59 324.148 375.059 322.335 374.23 319.103L373.279 315.323C371.442 307.929 364.18 299.484 356.64 296.749C346.974 293.243 338.468 298.81 333.487 314.161L333.292 314.756C328.008 330.774 321.04 341.574 314.153 344.345C306.907 347.259 299.528 341.047 292.935 324.329L290.91 319.213C282.685 298.528 276.255 283.49 270.15 271.156L269.558 269.966C261.304 253.481 254.553 244.045 248.791 242.262ZM218.304 247.743C229.211 242.688 239.357 242.484 247.904 245.128C252.544 246.564 259.047 255.677 266.898 271.355L267.755 273.081C273.632 285.018 279.852 299.559 287.73 319.337L290.145 325.43C297.267 343.49 306.012 350.853 315.272 347.128C323.31 343.895 330.782 332.209 336.34 315.087L336.488 314.638C340.992 301.116 347.812 296.738 355.617 299.569C362.192 301.954 368.765 309.598 370.367 316.047C371.847 322.001 372.44 324.204 373.567 327.518L373.782 328.14C376.161 334.935 379.109 340.05 383.097 343.417C388.246 347.762 394.8 348.805 402.825 346.027L403.973 345.637C422.502 339.446 430.165 342.567 432.442 354.415L432.525 354.822C435.391 368.179 451.799 374.183 496.799 377.584L497.513 377.64C519.126 379.36 536.402 384.626 543.44 390.896C549.363 396.173 545.993 400.921 531.915 403.588L531.039 403.749C513.494 406.87 377.397 407.308 269.006 404.223L267.141 404.169C206.982 402.431 159.007 399.789 129.691 396.341L127.901 396.127C111.814 394.166 101.834 391.939 98.9963 389.701C98.2999 389.152 98.2705 388.984 99.4152 388.231L99.7261 388.03L99.9153 387.912C101.99 386.654 105.876 385.285 111.562 383.853L112.649 383.583L112.294 382.125L113.17 383.344L113.524 383.08C113.69 382.954 113.874 382.812 114.074 382.655L114.855 382.032C115.824 381.245 116.921 380.312 118.138 379.225L118.649 378.766C122.412 375.368 126.573 371.185 131.033 366.17C144.329 351.223 157.614 331.985 170.005 308.022C171.598 304.941 173.168 301.796 174.713 298.586L175.109 297.769C188.191 270.89 202.863 254.898 218.304 247.743Z" fill="#141414" blush:i="0.1.0.1"/></g></g><g id="Object" blush:component="Object" blush:defaultValue="Cloud 2" blush:width="645" blush:height="650" transform="translate(148 0) scale(1 1)" blush:i="0.2" blush:value="Cloud 2" blush:viewBox="94.92943548387098 240.5 455.141129032258 169.00000000000014"><g id="Object/Cloud 2" blush:viewBox="94.92943548387098 240.5 455.141129032258 169.00000000000014" blush:i="0.2.0"><path id="Fill 4" fill-rule="evenodd" clip-rule="evenodd" d="M112.296 382.126C112.296 382.126 143.701 359.536 173.363 297.936C203.028 236.332 236.867 240.143 248.348 243.695C259.825 247.247 277.03 288.085 291.541 324.88C306.052 361.677 324.366 347.119 334.915 314.624C345.461 282.126 368.638 302.862 371.824 315.685C375.01 328.507 380.515 352.161 402.336 344.61C424.155 337.054 431.648 342.331 433.917 354.131C436.183 365.932 449.442 372.5 496.913 376.089C544.387 379.68 564.711 399.285 531.303 405.225C497.898 411.169 4.8072 408.307 112.296 382.126" fill="white" blush:i="0.2.0.0"/><path id="Fill 4 Copy" fill-rule="evenodd" clip-rule="evenodd" d="M248.791 242.262C239.576 239.411 228.674 239.631 217.042 245.021C200.757 252.568 185.472 269.329 172.01 297.285L171.088 299.188C169.853 301.714 168.604 304.2 167.34 306.644C155.065 330.383 141.923 349.414 128.792 364.176C124.205 369.332 119.952 373.584 116.14 376.987C114.812 378.173 113.635 379.168 112.623 379.977L112.418 380.141C112.152 380.351 111.916 380.534 111.711 380.69L111.643 380.741L111.365 380.81C104.915 382.407 100.54 383.952 98.1126 385.501C95.0723 387.44 94.5756 390.035 97.1385 392.057C100.514 394.72 110.242 396.94 126.212 398.941L127.538 399.105C157.082 402.707 206.555 405.447 268.92 407.222L275.473 407.403C382.999 410.296 514.076 409.814 531.565 406.702C539.945 405.212 545.471 402.802 547.898 399.572C550.462 396.16 549.425 392.21 545.435 388.656C537.723 381.785 519.567 376.298 497.025 374.593L495.71 374.492C452.62 371.144 437.611 365.422 435.388 353.849L435.305 353.427C432.47 339.631 422.546 336.023 401.844 343.192L401.458 343.323C388.789 347.53 381.38 341.172 376.407 326.552C375.59 324.148 375.059 322.335 374.23 319.103L373.279 315.323C371.442 307.929 364.18 299.484 356.64 296.749C346.974 293.243 338.468 298.81 333.487 314.161L333.292 314.756C328.008 330.774 321.04 341.574 314.153 344.345C306.907 347.259 299.528 341.047 292.935 324.329L290.91 319.213C282.685 298.528 276.255 283.49 270.15 271.156L269.558 269.966C261.304 253.481 254.553 244.045 248.791 242.262ZM218.304 247.743C229.211 242.688 239.357 242.484 247.904 245.128C252.544 246.564 259.047 255.677 266.898 271.355L267.755 273.081C273.632 285.018 279.852 299.559 287.73 319.337L290.145 325.43C297.267 343.49 306.012 350.853 315.272 347.128C323.31 343.895 330.782 332.209 336.34 315.087L336.488 314.638C340.992 301.116 347.812 296.738 355.617 299.569C362.192 301.954 368.765 309.598 370.367 316.047C371.847 322.001 372.44 324.204 373.567 327.518L373.782 328.14C376.161 334.935 379.109 340.05 383.097 343.417C388.246 347.762 394.8 348.805 402.825 346.027L403.973 345.637C422.502 339.446 430.165 342.567 432.442 354.415L432.525 354.822C435.391 368.179 451.799 374.183 496.799 377.584L497.513 377.64C519.126 379.36 536.402 384.626 543.44 390.896C549.363 396.173 545.993 400.921 531.915 403.588L531.039 403.749C513.494 406.87 377.397 407.308 269.006 404.223L267.141 404.169C206.982 402.431 159.007 399.789 129.691 396.341L127.901 396.127C111.814 394.166 101.834 391.939 98.9963 389.701C98.2999 389.152 98.2705 388.984 99.4152 388.231L99.7261 388.03L99.9153 387.912C101.99 386.654 105.876 385.285 111.562 383.853L112.649 383.583L112.294 382.125L113.17 383.344L113.524 383.08C113.69 382.954 113.874 382.812 114.074 382.655L114.855 382.032C115.824 381.245 116.921 380.312 118.138 379.225L118.649 378.766C122.412 375.368 126.573 371.185 131.033 366.17C144.329 351.223 157.614 331.985 170.005 308.022C171.598 304.941 173.168 301.796 174.713 298.586L175.109 297.769C188.191 270.89 202.863 254.898 218.304 247.743Z" fill="#141414" blush:i="0.2.0.1"/></g></g><g id="Plant" blush:component="Plant" blush:defaultValue="Plant 6" blush:width="645" blush:height="854" transform="translate(1570 555) scale(1 1)" blush:i="0.3" blush:value="Plant 5" blush:viewBox="53.75 170.79999999999995 537.4999999999999 683.1999999999999"><g id="Plant/Plant 5" blush:viewBox="53.75 170.79999999999995 537.4999999999999 683.1999999999999" blush:i="0.3.0"><g id="Leaf" blush:i="0.3.0.0"><path id="Fill 1" fill-rule="evenodd" clip-rule="evenodd" d="M142.073 854C142.073 854 38.7938 792.106 59.8255 680.113C72.3796 613.26 114.963 616.538 139.609 565.925C155.338 533.623 131.439 446.932 180.495 389.904C226.323 336.629 301.255 341.458 325.391 329.885C357.739 314.375 370.058 281.791 379.304 255.03C413.783 155.257 493.443 157.951 506.41 207.589C522.043 267.434 507.075 303.502 433.524 362.151C378.258 406.22 459.174 455.663 411.041 535.903C384.145 580.739 311.823 604.043 347.15 662.018C395.526 741.406 386.44 819.449 361.777 854H142.073Z" fill="#FF4B33" blush:i="0.3.0.0.0"/><path id="Fill 10" fill-rule="evenodd" clip-rule="evenodd" d="M443.406 258.575C442.624 257.801 441.361 257.808 440.586 258.595C440.327 258.858 414.244 285.467 380.282 331.474C348.951 373.923 304.281 442.077 269.41 525.699C238.434 599.984 204.117 704.414 213.608 854H217.604C208.11 705.103 242.264 601.165 273.091 527.238C339.511 367.957 442.394 262.447 443.426 261.399C444.199 260.615 444.19 259.349 443.406 258.575" fill="white" blush:i="0.3.0.0.1"/><path id="Fill 4" fill-rule="evenodd" clip-rule="evenodd" d="M511.73 488C505.488 488 499.131 493.164 499.131 499.42C499.131 500.461 499.283 501.463 499.546 502.421C446.698 528.402 399.565 562.051 359.321 602.561C325.081 637.028 295.722 676.507 272.062 719.896C251.011 758.501 238.459 793.126 231.637 815.376C225.256 836.184 222.553 850.375 221.91 854H225.965C226.77 849.598 229.474 836.045 235.451 816.549C242.22 794.479 254.672 760.126 275.563 721.816C299.043 678.756 328.175 639.583 362.149 605.384C402.073 565.197 448.833 531.812 501.268 506.029C503.32 508.883 506.656 510.748 510.433 510.748C516.675 510.748 521.91 506.764 521.91 500.508C521.91 494.253 517.971 488 511.73 488" fill="#141414" blush:i="0.3.0.0.2"/><path id="Fill 7" fill-rule="evenodd" clip-rule="evenodd" d="M578.336 616.953C572.079 616.953 565.708 622.117 565.708 628.374V628.377C546.338 631.849 513.648 639.101 454.234 660.976C375.152 690.094 320.491 740.93 288.562 778.445C253.959 819.101 237.815 853.387 237.656 853.728C237.615 853.817 237.59 853.908 237.562 854H241.975C245.354 847.205 261.341 816.578 291.695 780.933C323.306 743.818 377.401 693.529 455.617 664.73C514.728 642.967 547.197 635.762 566.427 632.312C568.028 636.624 572.167 639.702 577.036 639.702C583.293 639.702 588.54 635.719 588.54 629.462C588.54 623.205 584.593 616.953 578.336 616.953" fill="#141414" blush:i="0.3.0.0.3"/></g></g></g><g id="Screen" blush:component="Screen" blush:defaultValue="Conference" blush:width="1287" blush:height="889" transform="translate(557 548.5) scale(1 1)" blush:i="0.4" blush:value="Conference" blush:viewBox="25.74000000000001 -3.221014492753625 1261.2599999999998 895.4420289855071"><g id="Screen/Conference" blush:viewBox="25.74000000000001 -3.221014492753625 1261.2599999999998 895.4420289855071" blush:i="0.4.0"><g id="Window" blush:i="0.4.0.0"><path id="Frame (Stroke)" fill-rule="evenodd" clip-rule="evenodd" d="M1027 5H85C57.938 5 36 26.9381 36 54V778C36 805.062 57.938 827 85 827H1027C1054.06 827 1076 805.062 1076 778V54C1076 26.938 1054.06 5 1027 5ZM85 0C55.1766 0 31 24.1766 31 54V778C31 807.823 55.1766 832 85 832H1027C1056.82 832 1081 807.823 1081 778V54C1081 24.1766 1056.82 0 1027 0H85Z" fill="#141414" blush:i="0.4.0.0.0"/><path id="Title (Stroke)" fill-rule="evenodd" clip-rule="evenodd" d="M1027 5H85C57.938 5 36 26.938 36 54V121H1076V54C1076 26.938 1054.06 5 1027 5ZM85 0C55.1766 0 31 24.1766 31 54V126H1081V54C1081 24.1766 1056.82 0 1027 0H85Z" fill="#141414" blush:i="0.4.0.0.1"/><g id="Buttons" blush:i="0.4.0.0.2"><path id="Assets 98 (Stroke)" fill-rule="evenodd" clip-rule="evenodd" d="M116 81C124.837 81 132 73.8366 132 65C132 56.1634 124.837 49 116 49C107.163 49 100 56.1634 100 65C100 73.8366 107.163 81 116 81ZM116 85C127.046 85 136 76.0457 136 65C136 53.9543 127.046 45 116 45C104.954 45 96 53.9543 96 65C96 76.0457 104.954 85 116 85Z" fill="#141414" blush:i="0.4.0.0.2.0"/><path id="btn (Stroke)" fill-rule="evenodd" clip-rule="evenodd" d="M180 81C188.837 81 196 73.8366 196 65C196 56.1634 188.837 49 180 49C171.163 49 164 56.1634 164 65C164 73.8366 171.163 81 180 81ZM180 85C191.046 85 200 76.0457 200 65C200 53.9543 191.046 45 180 45C168.954 45 160 53.9543 160 65C160 76.0457 168.954 85 180 85Z" fill="#141414" blush:i="0.4.0.0.2.1"/><path id="btn (Stroke)_2" fill-rule="evenodd" clip-rule="evenodd" d="M244 81C252.837 81 260 73.8366 260 65C260 56.1634 252.837 49 244 49C235.163 49 228 56.1634 228 65C228 73.8366 235.163 81 244 81ZM244 85C255.046 85 264 76.0457 264 65C264 53.9543 255.046 45 244 45C232.954 45 224 53.9543 224 65C224 76.0457 232.954 85 244 85Z" fill="#141414" blush:i="0.4.0.0.2.2"/></g></g><g id="Icon" blush:i="0.4.0.1"><g id="play" blush:i="0.4.0.1.0"><path id="Fill 12" fill-rule="evenodd" clip-rule="evenodd" d="M630.513 447.758C630.513 505.612 583.611 552.514 525.756 552.514C467.902 552.514 421 505.612 421 447.758C421 389.902 467.902 343 525.756 343C583.611 343 630.513 389.902 630.513 447.758" fill="#FF4B33" blush:i="0.4.0.1.0.0"/><path id="Fill 14" fill-rule="evenodd" clip-rule="evenodd" d="M489.691 447.758V400.562L530.563 424.159L571.436 447.758L530.563 471.355L489.691 494.952V447.758Z" fill="white" blush:i="0.4.0.1.0.1"/></g></g><rect id="Rectangle" x="679" y="268" width="607" height="620" rx="28" fill="white" blush:i="0.4.0.2"/><g id="Chat Window" blush:i="0.4.0.3"><g id="Border Box" blush:i="0.4.0.3.0"><path id="Fill 1" fill-rule="evenodd" clip-rule="evenodd" d="M703.885 270C692.369 270 683 279.369 683 290.886V863.121C683 874.638 692.369 884.007 703.885 884.007H1261.75C1273.26 884.007 1282.63 874.638 1282.63 863.121V290.886C1282.63 279.369 1273.26 270 1261.75 270H703.885ZM703.885 888.007C690.163 888.007 679 876.843 679 863.121V290.886C679 277.164 690.163 266 703.885 266H1261.75C1275.47 266 1286.63 277.164 1286.63 290.886V863.121C1286.63 876.843 1275.47 888.007 1261.75 888.007H703.885Z" fill="#141414" blush:i="0.4.0.3.0.0"/><path id="Fill 18" fill-rule="evenodd" clip-rule="evenodd" d="M1283.7 347.62H681.004C679.9 347.62 679.004 346.724 679.004 345.62C679.004 344.516 679.9 343.62 681.004 343.62H1283.7C1284.8 343.62 1285.7 344.516 1285.7 345.62C1285.7 346.724 1284.8 347.62 1283.7 347.62" fill="#141414" blush:i="0.4.0.3.0.1"/></g><g id="Button" blush:i="0.4.0.3.1"><path id="Fill 8" fill-rule="evenodd" clip-rule="evenodd" d="M760.207 297.355C755.18 297.355 751.09 301.445 751.09 306.472C751.09 311.5 755.18 315.589 760.207 315.589C765.234 315.589 769.324 311.5 769.324 306.472C769.324 301.445 765.234 297.355 760.207 297.355M760.207 319.589C752.974 319.589 747.09 313.705 747.09 306.472C747.09 299.239 752.974 293.355 760.207 293.355C767.44 293.355 773.324 299.239 773.324 306.472C773.324 313.705 767.44 319.589 760.207 319.589" fill="#141414" blush:i="0.4.0.3.1.0"/><path id="Fill 14_2" fill-rule="evenodd" clip-rule="evenodd" d="M798.052 297.355C793.025 297.355 788.934 301.445 788.934 306.472C788.934 311.5 793.025 315.589 798.052 315.589C803.079 315.589 807.169 311.5 807.169 306.472C807.169 301.445 803.079 297.355 798.052 297.355M798.052 319.589C790.819 319.589 784.934 313.705 784.934 306.472C784.934 299.239 790.819 293.355 798.052 293.355C805.285 293.355 811.169 299.239 811.169 306.472C811.169 313.705 805.285 319.589 798.052 319.589" fill="#141414" blush:i="0.4.0.3.1.1"/><g id="Active" blush:i="0.4.0.3.1.2"><path id="Fill 4" fill-rule="evenodd" clip-rule="evenodd" d="M733.476 306.472C733.476 312.612 728.498 317.589 722.359 317.589C716.219 317.589 711.242 312.612 711.242 306.472C711.242 300.332 716.219 295.355 722.359 295.355C728.498 295.355 733.476 300.332 733.476 306.472" fill="#FF4B33" blush:i="0.4.0.3.1.2.0"/><path id="Fill 6" fill-rule="evenodd" clip-rule="evenodd" d="M722.359 297.355C717.332 297.355 713.242 301.445 713.242 306.472C713.242 311.5 717.332 315.589 722.359 315.589C727.386 315.589 731.476 311.5 731.476 306.472C731.476 301.445 727.386 297.355 722.359 297.355M722.359 319.589C715.126 319.589 709.242 313.705 709.242 306.472C709.242 299.239 715.126 293.355 722.359 293.355C729.592 293.355 735.476 299.239 735.476 306.472C735.476 313.705 729.592 319.589 722.359 319.589" fill="#141414" blush:i="0.4.0.3.1.2.1"/></g></g></g><path id="Graph" fill-rule="evenodd" clip-rule="evenodd" d="M832 825V540H795V825H832ZM968 825V681H931V825H968ZM903 619V825H866V619H903ZM1040 825V724H1003V825H1040ZM1111 747V825H1074V747H1111ZM1172 825V729H1135V825H1172Z" fill="#D3E2F2" blush:i="0.4.0.4"/><path id="Up" d="M1085.23 585.76L967.917 648.539L828.417 435.807L842.626 427.631L797 398L799.933 452.2L811.89 445.319L961.528 673.513L1078.87 610.723L1154.07 725L1170 714.576L1085.23 585.76Z" fill="#02BAD3" blush:i="0.4.0.5"/></g></g></g></svg>